<svg width="35" height="27" viewBox="0 0 35 27" fill="none" xmlns="http://www.w3.org/2000/svg">
<path d="M17.4469 0.202519C17.4769 0.260382 18.646 1.73588 18.646 1.73588C19.2456 1.27298 19.965 0.867939 20.6845 0.520764C19.6353 0.173588 18.5561 0 17.4169 0C16.3078 0 15.2286 0.173588 14.1494 0.520764C14.8689 0.839008 15.5883 1.27298 16.1879 1.73588C16.2478 1.73588 17.4169 0.260382 17.4469 0.202519Z" fill="#7300E0"/>
<path d="M11.4217 8.24414C10.8222 8.7649 8.69378 10.4719 8.51392 13.9147C10.6123 17.7336 14.1197 19.1513 17.1174 19.267C15.3787 17.994 11.4517 14.3487 11.4217 8.24414Z" fill="#7300E0"/>
<path d="M15.1393 3.20977V1.90786C14.4798 1.44496 13.4006 1.03992 13.1607 0.953125C11.4221 1.73427 10.0131 2.97832 8.9939 4.54061C10.7925 3.44122 12.861 2.94939 15.1393 3.20977Z" fill="#7300E0"/>
<path d="M17.4468 3.78851C17.8665 3.61492 18.496 3.44133 18.9757 3.35454C18.9757 3.32561 18.9757 2.31301 18.9757 2.28408C18.8258 2.39981 18.6759 2.51553 18.526 2.66019L17.4468 1.27148L16.3676 2.66019C16.2177 2.54446 16.0679 2.39981 15.918 2.28408C15.918 2.31301 15.918 3.32561 15.918 3.35454C16.3976 3.44133 17.0271 3.61492 17.4468 3.78851Z" fill="#7300E0"/>
<path d="M19.9054 10.2118C19.6956 10.5879 19.2459 10.8772 18.7363 10.8772C18.3766 10.8772 18.0768 10.7615 17.837 10.5879V9.02561L18.9462 8.53378C19.4258 9.14134 19.6356 9.54638 19.9054 10.2118ZM20.3251 12.3527C20.3251 13.4232 20.2052 13.915 19.8755 14.7829C19.0361 15.1012 18.3166 15.2748 17.4473 15.2748C16.578 15.2748 15.8585 15.1012 15.0191 14.7829C14.6894 13.915 14.5695 13.4232 14.5695 12.3527C14.5695 12.1213 14.5994 11.8898 14.5994 11.6873C15.3789 12.3238 16.3681 12.6999 17.4473 12.6999C18.5265 12.6999 19.5157 12.3238 20.2951 11.6873C20.3251 11.9187 20.3251 12.1502 20.3251 12.3527ZM15.9484 8.53378L17.0576 9.02561V10.5879C16.8178 10.7904 16.518 10.8772 16.1583 10.8772C15.6487 10.8772 15.199 10.559 14.9892 10.2118C15.259 9.54638 15.4688 9.14134 15.9484 8.53378ZM26.7403 6.10355C25.0316 4.59912 22.4835 3.52866 19.4258 4.04943C19.6656 4.13622 20.6549 4.4834 21.5242 5.64065C20.2352 5.35133 19.0961 5.75637 18.3766 6.45073L18.5864 7.57905H16.3082L16.518 6.45073C15.7985 5.72744 14.6594 5.35133 13.3704 5.64065C14.2397 4.4834 15.229 4.13622 15.4688 4.04943C12.4111 3.52866 9.83305 4.62805 8.15432 6.10355C7.61473 7.43439 7.46484 8.53378 7.46484 9.63317C7.46484 10.3275 7.64471 11.5426 7.9145 12.4684C8.69392 8.85202 11.5418 7.28973 11.5418 7.28973C13.7001 5.90103 15.259 6.47966 15.6786 6.76897C15.6786 6.82683 15.4688 7.92622 15.4388 7.95515C14.4196 9.14134 13.7601 10.8483 13.7601 12.5263C13.3704 12.237 13.0107 12.0055 12.6809 11.8609C12.9207 12.6999 13.9399 15.9981 17.4173 18.6308C20.9247 15.9981 21.9139 12.6999 22.1537 11.8609C21.854 12.0055 21.4942 12.237 21.0746 12.5263C21.0746 10.8483 20.445 9.17027 19.3958 7.95515C19.3958 7.92622 19.186 6.82683 19.156 6.76897C19.5757 6.47966 21.1345 5.90103 23.2929 7.28973C23.2929 7.28973 26.1108 8.85202 26.9201 12.4684C27.1899 11.5426 27.3698 10.3275 27.3698 9.63317C27.4298 8.53378 27.2799 7.43439 26.7403 6.10355Z" fill="#7300E0"/>
<path d="M23.5026 8.24414C23.4726 14.3487 19.5456 17.994 17.8369 19.267C20.8346 19.1513 24.312 17.7336 26.4404 13.9147C26.2306 10.4719 24.1022 8.7649 23.5026 8.24414Z" fill="#7300E0"/>
<path d="M19.7568 3.21136C22.0351 2.95097 24.1035 3.44281 25.9022 4.51327C24.9129 2.95097 23.474 1.70693 21.7353 0.925781C21.4955 1.01258 20.4163 1.44654 19.7568 1.88051V3.21136Z" fill="#7300E0"/>
<path d="M1.10916 23.4341H1.46889C1.85859 23.4341 2.18834 23.7523 2.18834 24.1284C2.18834 24.5046 1.85859 24.8228 1.46889 24.8228H1.10916C1.10916 24.3599 1.10916 23.8102 1.10916 23.4341ZM2.87782 25.8354C2.81786 25.5461 2.63801 25.2857 2.39819 25.1121C2.69796 24.8807 2.9078 24.5046 2.9078 24.1284C2.9078 23.4341 2.30825 22.8555 1.5888 22.8555H0V23.4341H0.419681V25.8354H0V26.414H1.10916V25.4014H1.46889C1.67873 25.4014 1.88857 25.4882 2.03846 25.6618C2.2483 25.8933 2.2483 26.2694 2.2483 26.414H3.29751V25.8354H2.87782V25.8354Z" fill="#7300E0"/>
<path d="M5.9059 25.8354H5.15647V24.9385H6.1757V24.331H5.15647V23.4341H5.9059V23.7234H6.56541V22.8555H4.01733V23.4341H4.43702V25.8354H4.01733V26.443H6.56541V25.4882H5.9059V25.8354Z" fill="#7300E0"/>
<path d="M13.7313 25.8354H12.9519V23.4341H13.4016V22.8555H11.8428V23.4341H12.2625V25.8354H11.8428V26.443H14.3908V25.4882H13.7313V25.8354Z" fill="#7300E0"/>
<path d="M21.913 25.8354H21.1336V23.4341H21.5832V22.8555H20.0244V23.4341H20.4441V25.8354H20.0244V26.443H22.5725V25.4882H21.913V25.8354Z" fill="#7300E0"/>
<path d="M29.7998 25.8354H28.6607L30.4294 23.2894V22.8555H27.7914V23.6945H28.4509V23.4341H29.5001L27.7014 25.9801V26.443H30.4593V25.5171H29.7998V25.8354Z" fill="#7300E0"/>
<path d="M17.9562 24.8228H17.5965C17.5965 24.3599 17.5965 23.8102 17.5965 23.4341H17.9562C18.0161 23.4341 18.0461 23.4341 18.1061 23.463C18.166 23.463 18.196 23.492 18.226 23.492C18.256 23.5209 18.3159 23.5209 18.3459 23.5498C18.3759 23.5788 18.4058 23.6077 18.4658 23.6366C18.6157 23.7523 18.6756 23.9259 18.6756 24.1284C18.6756 24.5046 18.3459 24.8228 17.9562 24.8228ZM18.0761 22.8555H16.4873V23.4341H16.907V25.8354H16.4873V26.414H18.1061V25.8354H17.5965V25.4014H18.0761C18.2859 25.4014 18.4958 25.3436 18.6756 25.2568C18.7356 25.2278 18.8255 25.17 18.8855 25.1121C18.9454 25.0543 19.0054 24.9964 19.0654 24.9385C19.1553 24.8517 19.2152 24.736 19.2752 24.6203C19.3352 24.4756 19.3651 24.2731 19.3651 24.0995C19.3951 23.4052 18.7956 22.8555 18.0761 22.8555Z" fill="#7300E0"/>
<path d="M24.6111 25.1696L25.0907 23.8098L25.5704 25.1696H24.6111ZM26.5896 25.835L25.4504 22.8262H25.0907H24.731L23.5919 25.835H23.2021V26.4137H24.1015L24.3413 25.7193H25.7502L25.9901 26.4137H26.8894V25.835H26.5896Z" fill="#7300E0"/>
<path d="M32.5564 25.1696L33.036 23.8098L33.5157 25.1696H32.5564ZM34.5349 25.835L33.3958 22.8262H33.036H32.6763L31.5372 25.835H31.1475V26.4137H32.0468L32.2866 25.7193H33.6955L33.9354 26.4137H34.8347V25.835H34.5349Z" fill="#7300E0"/>
<path d="M8.72534 25.1696L9.20498 23.8098L9.68462 25.1696H8.72534ZM10.6739 25.835L9.53473 22.8262H8.84525L7.70611 25.835H7.31641V26.4137H8.21573L8.45554 25.7193H9.86448L10.1043 26.4137H11.0036V25.835H10.6739Z" fill="#7300E0"/>
</svg>
